PathFileType	4	(X/Y/Z)	RUN4
DataRate	CameraRate	NumFrames	NumMarkers	Units	OrigDataRate	OrigDataStartFrame	OrigNumFrames
100	100	4	42	mm	100	469	128
Frame#	Time	LPSI			RPSI			RTH2			RTH3			LTH1			LTH2			LTH3			RTB1			RTB2			LTB1			LTB2			RCAL			RTOE			RMT5			LCAL			LTOE			LMT5			LACR			RACR			CLAV			C7			RUA1			RUA2			RUA3			RLEL			LUA1			LUA2			LUA3			LLEL			LMEL			RFAsuperior			RFAulna			LFAsuperior			LFAradius			LFAulna			RASI			RTB3			LTB3			RMEL			RFAradius			RTH1			LASI		
		X1	Y1	Z1	X2	Y2	Z2	X3	Y3	Z3	X4	Y4	Z4	X5	Y5	Z5	X6	Y6	Z6	X7	Y7	Z7	X8	Y8	Z8	X9	Y9	Z9	X10	Y10	Z10	X11	Y11	Z11	X12	Y12	Z12	X13	Y13	Z13	X14	Y14	Z14	X15	Y15	Z15	X16	Y16	Z16	X17	Y17	Z17	X18	Y18	Z18	X19	Y19	Z19	X20	Y20	Z20	X21	Y21	Z21	X22	Y22	Z22	X23	Y23	Z23	X24	Y24	Z24	X25	Y25	Z25	X26	Y26	Z26	X27	Y27	Z27	X28	Y28	Z28	X29	Y29	Z29	X30	Y30	Z30	X31	Y31	Z31	X32	Y32	Z32	X33	Y33	Z33	X34	Y34	Z34	X35	Y35	Z35	X36	Y36	Z36	X37	Y37	Z37	X38	Y38	Z38	X39	Y39	Z39	X40	Y40	Z40	X41	Y41	Z41	X42	Y42	Z42	

469	  4.690000	790.645661	1086.112993	-407.107991	804.565668	1077.940763	-294.137475	811.315650	758.821481	-216.591925	833.051179	602.487665	-221.041914	901.010665	906.020947	-540.698224	887.271564	741.653663	-488.367266	986.558797	635.813963	-488.240331	696.475007	437.332143	-284.054464	650.732935	522.872581	-221.748860	1097.863328	432.304832	-417.352645	1013.318907	316.376727	-449.557961	399.321933	593.766838	-271.956298	332.938134	368.874124	-334.219033	302.333044	407.178780	-240.937890	956.600274	 94.368878	-335.948780	1193.283473	 83.740379	-337.040014	1144.336104	 32.852998	-422.715774	905.765979	1513.330824	-520.688541	980.989824	1487.611382	-209.893647	1008.724062	1458.723884	-346.248210	884.319483	1527.936885	-355.509910	885.323469	1405.483734	-121.305723	931.675276	1343.233150	-99.802084	876.413942	1277.965296	-36.507773	847.868977	1225.108693	  2.242714	776.758176	1454.887667	-549.412656	778.559861	1372.520883	-580.667985	686.842262	1332.769103	-578.538897	647.184385	1273.809098	-590.229491	657.338247	1249.258820	-503.109241	931.501928	1160.574336	-30.038495	1031.597890	1065.250393	-114.199983	699.582854	1210.334047	-606.956006	884.237920	1172.741882	-574.864984	854.160165	1114.390575	-604.267763	969.755570	1016.791463	-246.176081	507.604795	469.213011	-287.448412	1076.917360	217.270181	-383.241802	816.920160	1195.791959	-77.596727	1041.440873	1108.989275	-167.112240	887.190175	895.956971	-194.836425	945.010301	1028.388907	-484.933035	
470	  4.700000	787.853412	1079.636410	-406.553303	801.178710	1070.525387	-293.471388	818.012222	747.913735	-215.345242	847.260764	591.805970	-217.670249	898.240273	899.821045	-540.907352	885.801906	735.525998	-489.825897	986.034063	629.809983	-488.937711	716.637726	431.679501	-279.882497	673.046126	518.934199	-218.260798	1092.540617	426.901456	-411.963464	1002.134337	316.752997	-446.178983	422.047967	597.507045	-273.631299	355.680458	370.451017	-327.920513	326.094889	411.762930	-235.538516	920.496569	 97.236015	-331.137019	1158.186468	 76.065060	-331.198084	1106.853937	 35.793317	-423.884138	907.563566	1502.714125	-523.187220	978.394259	1479.806836	-209.149570	1008.458237	1450.373820	-345.787248	883.963449	1519.524310	-358.191908	879.462898	1397.873360	-123.423629	924.906708	1335.724830	-99.307699	867.367424	1271.490966	-37.246342	836.845048	1220.494170	  1.866853	780.445014	1439.074922	-555.434368	784.729245	1356.325500	-583.957347	694.034212	1313.858819	-583.135550	655.188815	1255.075059	-595.208554	664.789874	1231.710818	-507.649793	918.329258	1150.390397	-24.574331	1016.286049	1047.479185	-101.618050	708.422064	1191.286122	-610.578000	893.329203	1156.274583	-576.239332	864.183499	1097.056926	-604.600307	967.993231	1007.734951	-245.475980	529.182149	469.194108	-284.992081	1054.235433	213.782115	-376.136162	807.990168	1190.104169	-78.148807	1029.913135	1087.246056	-156.644731	886.372582	886.911169	-196.656990	942.304875	1020.981739	-483.170976	
471	  4.710000	784.294918	1073.810122	-406.094918	797.192476	1063.909896	-293.021713	825.438311	738.246802	-213.143585	862.891041	582.923825	-214.460950	893.983177	894.351958	-543.188701	884.378363	730.521900	-490.351243	984.796444	624.798904	-488.480244	738.721223	426.950859	-276.587105	695.953969	514.219826	-213.784964	1084.012002	422.078108	-406.245416	987.176954	318.863755	-443.495523	445.331977	597.840215	-275.163219	380.137298	368.532036	-321.363840	351.737218	412.574116	-229.816146	882.711801	 99.472209	-328.523075	1120.510935	 74.409761	-327.573451	1068.357694	 38.898758	-423.773575	909.257734	1493.305270	-525.413603	975.934871	1472.845357	-208.007554	1007.968778	1442.928475	-344.960732	884.210369	1513.067548	-360.727803	873.927734	1390.769418	-125.083904	918.053171	1328.939627	-98.568819	857.425950	1265.990824	-37.683478	825.237088	1216.456884	  1.286563	785.823295	1422.735499	-561.557378	792.220486	1340.079638	-586.659642	702.749403	1294.670879	-587.878395	664.654054	1236.196402	-600.718043	673.535258	1213.942653	-512.885268	904.278206	1141.043765	-19.831639	999.844613	1031.852369	-89.459636	718.304289	1171.538841	-614.356332	903.504137	1138.994473	-577.401421	874.969557	1079.032191	-604.371647	965.223315	999.549496	-245.375393	552.274589	467.500583	-282.907673	1028.067577	212.015296	-371.547178	798.711167	1185.029827	-78.910367	1016.935726	1067.681751	-146.067104	886.048091	879.055727	-198.655849	938.830663	1014.191843	-481.428883	
472	  4.720000	781.267076	1068.719647	-406.267268	793.725703	1058.170702	-293.315818	833.469390	730.285964	-210.656355	879.986522	576.813449	-211.363885	889.864215	889.218567	-545.427344	881.465139	725.982850	-489.791926	980.508661	619.543512	-486.897405	762.644389	423.160286	-274.156824	719.248410	509.379295	-208.708768	1070.377473	415.153655	-401.796849	967.104504	318.743076	-441.366076	468.277993	594.983328	-276.214260	406.678147	363.177376	-314.814625	379.348950	409.342528	-223.886626	844.178531	100.965068	-327.623236	1081.802661	 74.156174	-326.275878	1028.817643	 39.172199	-422.204491	910.493966	1485.609664	-527.126236	973.607229	1466.909320	-206.811422	1007.277021	1436.720609	-343.861839	884.806406	1508.470972	-362.473565	868.851173	1384.941848	-125.984343	911.109964	1323.462893	-97.659951	846.471735	1262.260284	-37.933118	812.967238	1213.690456	  0.571397	792.230052	1407.325481	-566.189307	800.791798	1325.027917	-588.623494	712.850480	1276.465923	-592.721556	676.201709	1217.862823	-606.804437	684.134538	1196.406356	-518.960717	889.743747	1133.707869	-15.808150	982.236695	1018.772677	-78.145870	730.045921	1152.137757	-618.516464	915.216638	1121.562338	-577.937541	887.266986	1061.058986	-603.761834	961.459331	993.262444	-245.573080	576.737969	464.286851	-281.137713	998.564189	209.107534	-369.403366	788.893485	1181.209134	-79.834989	1002.763737	1050.983907	-135.688788	885.962739	873.384661	-200.230805	935.874181	1008.135039	-480.246088	
